# xmcd
#
# Track frame offsets:
# 150
# 27637
# 51240
# 73260
# 98225
# 127550
# 152337
# 175645
#
# Disc length: 2615 seconds
#
# Revision: 0
# Processed by: cddbd v1.5.1PL0 Copyright (c) Steve Scherf et al.
# Submitted via: Audion 3.0.2 (http://www.panic.com/audion/)
#
DISCID=5f0a3508
DTITLE=Forbidden Cuba - Forbidden Cuba - In  The 80s
DYEAR=1900
DGENRE=
TTITLE0=Sea Como Sea
TTITLE1=Mejor Diciembre
TTITLE2=Viudo, Soltero Y Casado
TTITLE3=No Te Quedes Con Mi Paso
TTITLE4=Este Es Mi Barrio
TTITLE5=Decide Tu
TTITLE6=Fuera De Mi Tierra
TTITLE7=Juan Arere
EXTD=
EXTT0=
EXTT1=
EXTT2=
EXTT3=
EXTT4=
EXTT5=
EXTT6=
EXTT7=
PLAYORDER=
